<svg xmlns="http://www.w3.org/2000/svg" width="621.66" height="590.15" fill="#231f20" xmlns:v="https://vecta.io/nano"><path d="M62.07 534.56c2 3.83 5.6 7.22 8.82 10 10 8.58 21.73 14.8 33.77 19.94a271.69 271.69 0 0 0 67.76 19.37 635 635 0 0 0 69.3 5.71c43 1.4 86.58.4 129.35-4.8 26.34-3.2 52.88-8.3 77.65-18 17.43-6.8 34.46-15.7 47.9-28.93a88.37 88.37 0 0 0 8.69-10c2.54-3.4 6.38-8 6.55-12.36.08-2.18-.25-4.46-.37-6.64l-4.47-80.83c-1-17.6-.67-35-.4-52.65l.4-21.63.2-7.22c0-.76.08-1.52.1-2.28 0-1.4.84-2.64-.1-.07-1.35 3.67-2.78 3.8-1.18 2.28a31.92 31.92 0 0 0 3-3.86l6.87-9.06q26.05-34.6 51.37-69.76l25.4-35.94c5.2-7.56 10.84-15.18 15-23.4s9.5-15.44 12.07-24.65a50.77 50.77 0 0 0-.17-28.85c-2.38-7.52-6.44-14-11.27-20.1a244 244 0 0 0-24.58-27.08 425.19 425.19 0 0 0-53.64-43.06c-7.55-5.07-14.26-7.87-23.36-8.8-12-1.2-24.36.46-36 3.36-7.08 1.78-14.63 1.23-21.9 1.08-4.58-.1-9.16-.26-13.7-.68-1.57-.14-3.13-.3-4.68-.57-.85-.16-1.7-.32-2.53-.54-.25-.06-3-.93-1.55-.4 1.26.45-.37-.17-.66-.3l-2-.9-5.96-2.53q-8.92-3.8-17.9-7.45c-30.42-12.36-62.12-25.45-94.64-31-9.66-1.65-18.2-1.87-27.62.46a498.1 498.1 0 0 1-55.53 10.14c-12.6 1.62-24.1 2.25-36.64 0a239.72 239.72 0 0 1-31.28-8.18C139 9.38 126.28 2.88 109.46.54c-18.93-2.62-38.44 5.84-54 15.9C44.82 23.2 34.96 31.1 25.3 39.1c-6 5-12.26 10.06-17.17 16.2-4.56 5.7-6.1 12.4-7 19.5A131.44 131.44 0 0 0 .2 98.66l2.6 45.23c.7 9.4 3 18.85 4.7 28.1q4.3 23.94 8.88 47.83c3 15.3 5.95 30.64 9.65 45.8 1.63 6.64 3.35 13.6 6.37 19.8a69.23 69.23 0 0 0 7 10.83c6.6 8.87 13.76 17.33 21 25.72l-2.2-5.3 2.86 214.12c.13 9.65 15.13 9.68 15 0l-2.84-214.12c-.4-5.54-6.93-10.82-10.34-14.9a313.69 313.69 0 0 1-8.7-10.73 87.31 87.31 0 0 1-8.14-11.88c-.28-.52-.52-1.07-.8-1.6-.85-1.56.54 1.87.07.14-.2-.74-.5-1.5-.76-2.22-3.16-8.88-5.12-18.15-7.12-27.35-6.3-29-11.57-58.3-16.77-87.53q-1.17-6.37-2.28-12.77a54.14 54.14 0 0 1-.83-8.36L15.02 95.4a95.83 95.83 0 0 1 1.3-21.66c.26-1.4.55-2.8 1-4.2.2-.7.42-1.4.7-2.06-.1.28-.6 1.23 0 0a23.32 23.32 0 0 1 1.55-2.59c-.93 1.36 1.12-1.25 1.6-1.75 6.6-7 14.08-13 21.56-19A218.13 218.13 0 0 1 67.4 26.56a84.93 84.93 0 0 1 22.71-9.76c9.1-2.3 17.22-2 26.4.1 13.32 3.1 24.8 9.14 38.15 13.3a223.63 223.63 0 0 0 29 7.13 116.48 116.48 0 0 0 34.77.65 563.28 563.28 0 0 0 57.56-9.8c3.56-.8 7.1-1.74 10.63-2.63.28-.07.5-.1.8-.16-2.08.4 1 0 1.52 0a55.57 55.57 0 0 1 7.74.36c1.9.2 4.75.67 7.63 1.23 3.64.7 7.25 1.53 10.85 2.44 7.38 1.86 14.67 4 21.92 6.35 15.47 4.94 30.72 10.57 45.84 16.5l31.44 12.94c3.12 1.34 6.25 3 9.53 3.85 7.6 2 15.9 2.1 23.7 2.3a188.56 188.56 0 0 0 19.75-.06c6.08-.5 12-2.78 18-3.7a90.87 90.87 0 0 1 16.31-1 45.48 45.48 0 0 1 10.59 1.37c3 .8 5.25 2.42 9 4.9 9.08 6 17.6 12.76 26.1 19.55 16.57 13.27 32.84 27.2 46.16 43.83 9 11.3 16.13 23.75 11.7 39.58a57.32 57.32 0 0 1-6.53 14.4 52.53 52.53 0 0 0-4 6.77c.14-.32.9-1.68 0-.12l-4.77 8.1c-13.73 21.7-29.1 42.4-44.2 63.15q-22.37 30.76-45.23 61.14-1.47 2-3 3.9l-1.2 1.57c-1.4 1.85.72-.88-.17.22-1.83 2.27-3.36 4.34-3.67 7.37-1 9.74-.63 19.77-.8 29.55-.26 16.5-.94 33 0 49.48l5.18 94.15 1-3.8c-15 27.14-47.25 40.18-75.63 48.08-21.85 6.08-44.36 9.58-66.85 11.66a910.85 910.85 0 0 1-118.32 3 587.09 587.09 0 0 1-60-4.92 271.65 271.65 0 0 1-60.92-16.37 163.19 163.19 0 0 1-21.36-10.25c-2.72-1.56-5.4-3.22-8-5-1.08-.75-2.15-1.5-3.2-2.3 1.35 1-1-.8-1.4-1.15a82.12 82.12 0 0 1-6.41-6.37c-.9-.93 1.1 1.77.27.35-.15-.27-.36-.53-.53-.8a4.3 4.3 0 0 1-.39-.65c-4.44-8.6-17.35-1.02-13 7.57zM88.72 82.4q0 37.28 1.12 74.54c.68 21.63 1.66 43.26 3.13 64.85 1.17 17.06 2.6 34.12 4.74 51.1 1.45 11.47 3 23.06 6.06 34.23a49.19 49.19 0 0 0 3.47 9.82c2.06 4 5.7 5.72 9.94 7a24.73 24.73 0 0 0 7.12 1.31c.72 0 1.36-.18 1.08-.93s-2.47-1.68-3-1.92a26.21 26.21 0 0 0-10-2.52 25.05 25.05 0 0 1 9 2.3c-.15-.07 2 .9 2 1.1a4 4 0 0 0-.37-.27c-.47-.5.28.3.24.24s-.25-.26-.36-.4a9.9 9.9 0 0 1-.69-.91 25.13 25.13 0 0 1-2.65-5.74c-.55-1.54-1-3.1-1.45-4.68l.13.48a205.31 205.31 0 0 1-4.86-24.94c-1.76-12-3-24-4.12-36.06-1.36-15.1-2.38-30.23-3.2-45.36q-1.44-26.42-2.12-52.86-.8-29.25-.86-58.52 0-3.72 0-7.44c0-.78-1.27-1.42-1.77-1.7a24.25 24.25 0 0 0-4.92-2c-.58-.17-7.63-2.1-7.63-.74zm102-.73q0 39.72-.47 79.43-.42 34.9-1.3 69.8l-2 56.37c-.62 13.23-1.32 26.47-2.54 39.66-.38 4.1-.8 8.23-1.43 12.32-.22 1.38-.45 2.77-.76 4.14 0 .1-.06.23-.08.34-.2.9.33-1.25.22-.9s-.12.5-.2.72a11.15 11.15 0 0 1-.4 1.15 4.22 4.22 0 0 1-.38.73l.77-1.1a1.12 1.12 0 0 1-.32.33l1.14-.7c-.65.38 1.7-.2 1.14-.2-3.5.1-4.26 3.93-3.08 6.62 1.4 3.15 4.66 6.3 8.35 6.22 3-.08 4.24-2.73 4.88-5.23a85 85 0 0 0 1.86-10.65c1.44-11.9 2.12-23.92 2.78-35.9l2.2-55q1-35.07 1.5-70.15.6-40.74.62-81.47 0-5.28 0-10.56a9.82 9.82 0 0 0-5.77-8.67c-1.34-.57-3.1-1.13-4.52-.46a3.62 3.62 0 0 0-2.25 3.18zM389.24 95.7a689.71 689.71 0 0 0-33.95 69 514.8 514.8 0 0 0-22.39 63.61c-5 18.15-8.88 36.73-10.5 55.5-1.2 14-1.24 28.5 2.28 42.18 2.7 10.43 7.44 20.5 16.4 26.94a32.19 32.19 0 0 0 2.83 1.8c2.8 1.58 7.13-.67 9.27-2.5 1.4-1.2 5-5 2.08-6.7a31.49 31.49 0 0 1-6.37-4.76l.75.72c-5.65-5.5-9.12-12.8-11.3-20.3l.3 1c-2.9-10.1-3.65-20.77-3.48-31.25.1-6.33.56-12.65 1.27-19q.58-5.07 1.37-10.1c-.18 1.12 0-.24.08-.54s.13-.8.2-1.2l.47-2.76q.48-2.72 1-5.42a396 396 0 0 1 12.22-46.44c5.62-17.35 12.2-34.38 19.5-51.1q2.9-6.6 5.93-13.16l3.18-6.75.73-1.53.22-.46c-.26.54.1-.2.12-.24q.84-1.75 1.7-3.5 6.8-13.83 14.2-27.36l3.7-6.65c.54-1 1.15-2.34.5-3.43s-2.2-1.26-3.26-1.16c-3.3.32-7.4 2.5-9.1 5.48zm103.6 56.13c-9.9 18-19.3 36.23-28.06 54.8-7.74 16.45-15 33.14-21.47 50.12a380.62 380.62 0 0 0-13.51 41.33c-2.6 10.2-4.7 20.63-4.77 31.18 0 6.32.92 13.9 6.12 18.2a16.42 16.42 0 0 0 2.54 1.68 10.07 10.07 0 0 0 10.47-1.7c1-1 1.93-2.46 1.58-4a5 5 0 0 0-2.75-3.26c-1.1-.6 1.4 1 .57.38-.22-.18-.44-.34-.65-.52s-.4-.37-.58-.56c-.8-.8 1 1.37.3.35a14 14 0 0 1-1.76-3.3l.48 1.3c-1.47-4-1.63-8.4-1.5-12.6v1.4a118.7 118.7 0 0 1 3.37-22.72 301.18 301.18 0 0 1 8.5-29.28c1.9-5.63 3.94-11.23 6-16.8q1.67-4.33 3.38-8.66l1.8-4.44c-.57 1.4 0 .1.07-.15s.3-.75.46-1.13l1.1-2.63c5.5-13.15 11.4-26.12 17.58-38.94q11.5-23.82 24.33-47c1.7-3.06-.68-5.95-3.8-6.56-3.28-.64-8 .25-9.83 3.48z"/></svg>