<svg xmlns="http://www.w3.org/2000/svg" width="25.915" height="26.706"  fill="#383b3e" xmlns:v="https://vecta.io/nano"><path d="M7.103 12.785a2.07 2.07 0 0 0 1.988.1 4.11 4.11 0 0 0 3.374-.234c.67.494 1.555.59 2.317.255.53-.2.6.142 1.3.2.632.052.872-.177.92-.5.083-.593-.568-.6-.568-1.02a2.4 2.4 0 0 0-.8-1.939c-.43-.276-.64-.58-1.156-2.215-.46-1.457-1.172-1.87-1.682-1.962V4.61a1.75 1.75 0 0 0 1.519-1.852 1.75 1.75 0 0 0-1.749-1.637c-.172-.001-.343.024-.507.075a1.74 1.74 0 0 0-1.662-1.2A1.76 1.76 0 0 0 8.75 1.151a1.75 1.75 0 0 0-1.948 2.372 1.75 1.75 0 0 0 1.411 1.089v.693c-1.102.345-1.967 1.202-2.3 2.3a3.99 3.99 0 0 0 .087 1.548c0 0 .3.81-.735 1.578a1.26 1.26 0 0 0-.11 1.853c.55.47 1.33.548 1.962.2zm5.073-.5c-1.14.58-2.498.526-3.588-.142S6.834 10.288 6.834 9v-.04a8.5 8.5 0 0 0 2.95-.578 4.52 4.52 0 0 0 2.363-2.026c.1-.168.166-.343.23-.522a3.67 3.67 0 0 1-.2 6.44zm-3.73-8.107a1.29 1.29 0 0 1-.956-2.156 1.29 1.29 0 0 1 1.356-.366c.062.02.13.013.185-.02a.23.23 0 0 0 .11-.151A1.3 1.3 0 0 1 10.403.463c.636-.002 1.177.46 1.274 1.09a.23.23 0 0 0 .328.17 1.27 1.27 0 0 1 .567-.132 1.29 1.29 0 0 1 1.119 1.938 1.29 1.29 0 0 1-1.119.646.23.23 0 0 0-.23.23V5.3a4.15 4.15 0 0 0-.448-.189v-.932a.23.23 0 1 0-.46 0v.8a3.92 3.92 0 0 0-.69-.092V3.95a.23.23 0 1 0-.46 0v.93c-.075 0-.15.006-.225.015h0s-.18.013-.464.06v-.776a.23.23 0 1 0-.46 0v.868l-.456.12v-.765a.23.23 0 0 0-.23-.23zm3.214 13.8a.46.46 0 1 0 0-.92.46.46 0 0 0-.46.46.48.48 0 0 0 .055.214.46.46 0 0 0 .406.239z"/><circle cx="11.662" cy="19.35" r=".46"/><circle cx="11.662" cy="21.189" r=".46"/><circle cx="11.662" cy="23.028" r=".46"/><path d="M10.053 17.97a.46.46 0 0 0 .325-.785.46.46 0 0 0-.785.325c.003.253.207.457.46.46z"/><circle cx="10.053" cy="19.35" r=".46"/><circle cx="10.053" cy="21.189" r=".46"/><circle cx="10.053" cy="23.028" r=".46"/><path d="M25.45 5.328h-4.127c-.257 0-.465.208-.465.465v2.064c0 1.22.87 2.263 2.07 2.483v1h-.3l-.187-.483c-.113-.294-.418-.468-.73-.417s-.543.314-.556.63l-.08 2.03a.7.7 0 0 1-.1.33l-.228.377-2 3.56a.23.23 0 0 1-.377.034l-1.757-2.12c-.853-1.03-2.114-1.638-3.452-1.662h0-4.673v.01c-.008-.001-.015-.001-.023 0H7.52a4.85 4.85 0 0 0-2.138.5L1.41 16.1A2.53 2.53 0 0 0 .05 18.855l1.03 5.1H.63a.46.46 0 0 0 0 .919h.637l.045.218a1.14 1.14 0 0 0 1.147.918c.205-.008.402.08.534.237.124.143.304.225.493.225a.64.64 0 0 0 .222-.04 1.11 1.11 0 0 0 .721-1.16l-.043-.4h1.862l.216 1.265a.69.69 0 0 0 .68.574h10.79a.46.46 0 0 0 .4-.226l1.086-1.84a.46.46 0 0 0-.4-.694h-3.132l.077-.634c.02-.03.032-.064.036-.1l.07-.788.1-.826c0-.015.01-.03.013-.046.013-.058.05-.11.1-.14.063-.036.14-.04.206-.01l1.227.54a2.53 2.53 0 0 0 3.272-1.163l1.93-3.78v2.807a.46.46 0 0 0 .696.416.46.46 0 0 0 .223-.416v-4.6c.286-.062.5-.3.53-.59l.23-2c.06-.533-.254-1.037-.76-1.214v-1.08c1.198-.22 2.068-1.265 2.07-2.483V5.793c0-.255-.205-.462-.46-.465zm-3.215 2.988a.23.23 0 1 1-.46 0v-1.84a.23.23 0 1 1 .46 0zm.92-1.84a.23.23 0 1 1 .46 0v2.53c-.001.02-.005.04-.01.057-.025.1-.115.17-.218.17s-.194-.07-.218-.17c-.006-.018-.01-.038-.01-.057zm.993 6.1l-.23 2c-.008.053-.034.1-.074.136-.01.014-.024.026-.038.036-.047.026-.102.033-.154.022-.017-.001-.034-.004-.05-.01-.045-.02-.087-.043-.13-.064a1.95 1.95 0 0 1-1.026-1.37l-.235-1.25a.23.23 0 0 1 .226-.272h1.03a.69.69 0 0 1 .382.118c.05.032.094.07.133.113a.69.69 0 0 1 .171.538zm-6.238 8.95l-1.227-.54a.7.7 0 0 0-.189-.051 3.37 3.37 0 0 0-.028-3.373.23.23 0 0 0-.408.211q.1.176.163.36a2.84 2.84 0 0 1-.2 2.692c-.017.026-.03.054-.046.08a2.29 2.29 0 0 0-.207.447c-.015.04-.027.08-.035.12a.58.58 0 0 0-.014.057h0a1.89 1.89 0 0 0-.052.287l-.05.56-.2 1.565h-2.18v-6.87c-.002-.595-.46-1.1-1.052-1.14.56-.384.94-.977 1.06-1.645l.03-.2a4.13 4.13 0 0 1 2.969 1.492l1.757 2.12a.69.69 0 0 0 1.131-.1l1.91-3.38 1.875.755v1.02l-2.34 4.58a2.07 2.07 0 0 1-2.677.952zM7.14 26.246a.23.23 0 0 1-.227-.191l-.2-1.188H7.73l.855 1.38H7.142zm-3.172-.93a.65.65 0 0 1-.422.68c-.074.026-.156.005-.208-.054-.217-.253-.534-.4-.867-.4h-.038c-.327 0-.608-.23-.673-.55l-.288-1.415 2.345-.708.793.782h-.563a.23.23 0 0 0-.228.254l.15 1.408zm1.88-5.507c-.04-.195-.162-.363-.337-.457a.7.7 0 0 0-.592-.041l-1.028.4c-.02.01-.04.02-.06.03l-.19-1.866c-.014-.126-.126-.218-.252-.206a.23.23 0 0 0-.205.252l.4 3.886.057.64-2.257.68-.878-4.37a2.07 2.07 0 0 1 1.112-2.263l3.97-1.966a4.39 4.39 0 0 1 1.934-.452h.713a2.51 2.51 0 0 0 .13.594c.352 1.02 1.31 1.707 2.39 1.71h1.338a.69.69 0 0 1 .69.69v6.88h-6.23l-.707-4.14zm15.526-6.137a1.15 1.15 0 0 0 .165-.549l.08-2.03a.2.2 0 0 1 .2-.2c.084.001.16.052.19.13l.146.38c-.295.128-.46.443-.4.76l.235 1.25c.054.288.16.564.315.814l-1.02-.41.088-.146zM5.05 23.948c.13-.164.114-.4-.037-.545l-.908-.9-.193-2.135a.23.23 0 0 1 .146-.234l1.028-.4c.066-.023.138-.018.2.015.054.028.093.078.107.137l.693 4.058zM24.995 8.316a.23.23 0 1 1-.46 0v-1.84a.23.23 0 1 1 .46 0z"/></svg>