<svg xmlns="http://www.w3.org/2000/svg" width="24.668" height="26.625"  fill="#383b3e" xmlns:v="https://vecta.io/nano"><path d="M10.302 10.4a10.42 10.42 0 0 0 2.392-.273 5 5 0 0 1-1.838-2.991c-.2-.796-.327-1.614-.35-2.437.033-1.995 1.66-3.595 3.654-3.595s3.622 1.6 3.655 3.595c0 .06-.006.118-.01.177l.005.032a6.28 6.28 0 0 1-.6 2.184 6.4 6.4 0 0 1-.438.78c-.797 1.197-1.982 2.084-3.356 2.5a.23.23 0 0 1-.048.022c-.018.006-.038.01-.057.012-.922.28-1.88.427-2.844.435a3.37 3.37 0 0 0 1.675 1.873c1.8.817 4.08-.4 4.1-.412a5.66 5.66 0 0 1 4.11-1.145 3.08 3.08 0 0 1 1.017.39c.082.052.2.046.265-.015s.106-.162.072-.253c-.253-.8-.64-1.55-1.14-2.222-.607-.767-1.066-1.64-1.35-2.576l-.773-2.995c-.385-2.053-2.193-3.53-4.282-3.5A4.44 4.44 0 0 0 9.62 4.515a13.13 13.13 0 0 0 .682 5.885zm1.128-2.948l.16.45c.288.878.905 1.6 1.72 2.045a5.97 5.97 0 0 0 2.373-1.431l.4-.447.317-.43.068-.108c-.76.62-1.738.908-2.712.798s-1.864-.608-2.467-1.382l.14.505z"/><path d="M11.927 3.545h4.6a.46.46 0 0 0 .41-.247c.08-.153.065-.337-.036-.476a3.32 3.32 0 0 0-5.336 0 .46.46 0 0 0-.036.476c.078.153.236.248.408.247zm12.513 18.74h-2.554c.772-.457 1.206-1.324 1.107-2.216l-.616-5.6c-.1-.903-.467-1.755-1.056-2.447-.067-.017-.13-.044-.2-.08-1.16-.708-2.77-.445-4.654.76a6.79 6.79 0 0 1-2.922.76c-.55.007-1.096-.104-1.6-.325a4.04 4.04 0 0 1-2.1-2.635 2.28 2.28 0 0 0-1.274.967L1.78 22.28H.228c-.126 0-.228.102-.228.23s.102.228.228.228h7.958l-1.7 2.848c-.127.212-.13.475-.01.7s.35.348.596.348h11.853c.246-.001.473-.135.593-.35s.117-.477-.01-.688l-1.7-2.845h6.64c.126 0 .228-.102.228-.23s-.102-.228-.228-.228zm-13.092-.23a1.9 1.9 0 0 1 1.221-1.775 1.92 1.92 0 0 1 .446-.114l1.83-.23v2.346h-3.27a.23.23 0 0 1-.228-.227zm7.47-2.817c.187-.013.36-.102.48-.246s.175-.332.153-.518l-.342-2.886c-.015-.125.075-.24.2-.254a.23.23 0 0 1 .254.2l.342 2.886a1.14 1.14 0 0 1-1.057 1.274l-3.55.24v-.26c0-.065-.028-.128-.077-.17a.18.18 0 0 0-.04-.023zm-5.86-2.3c.114-.6.7-1.012 1.3-.898s1.012.7.898 1.3l-.4 2.133-.476.06.425-2.276a.66.66 0 0 0-.214-.64.67.67 0 0 0-.665-.124c-.228.082-.392.282-.43.52l-.5 2.7c-.167.025-.33.068-.5.128zM5.78 22.28l2.913-4.2a5.25 5.25 0 0 1 .8-2.658c.072-.104.214-.13.318-.057s.13.214.057.318a4.74 4.74 0 0 0-.625 1.61l-.027.168a3.2 3.2 0 0 0 .559 2.394 2.98 2.98 0 0 1 .606 2.421h-4.6zm13.33 3.537c.043.07.044.16.002.232a.23.23 0 0 1-.202.114H7.064c-.083.002-.16-.042-.202-.114a.23.23 0 0 1 .002-.232l1.85-3.08h3.623l-.137.74.465 1.14.845-.9.183-.983h3.566z"/></svg>